<svg width="25" height="25" xmlns="http://www.w3.org/2000/svg">
    <g fill-rule="evenodd">
        <path d="M8.607 13.393a3 3 0 013 3V22a3 3 0 01-3 3H3a3 3 0 01-3-3v-5.607a3 3 0 013-3h5.607zm13.393 0a3 3 0 013 3V22a3 3 0 01-3 3h-5.607a3 3 0 01-3-3v-5.607a3 3 0 013-3H22zm-13.393 1.7H3a1.3 1.3 0 00-1.293 1.167l-.007.133V22a1.3 1.3 0 001.167 1.293L3 23.3h5.607A1.3 1.3 0 009.9 22.133L9.907 22v-5.607A1.3 1.3 0 008.74 15.1l-.133-.007zm13.393 0h-5.607A1.3 1.3 0 0015.1 16.26l-.007.133V22a1.3 1.3 0 001.167 1.293l.133.007H22a1.3 1.3 0 001.293-1.167L23.3 22v-5.607a1.3 1.3 0 00-1.167-1.293L22 15.093zM8.607 0a3 3 0 013 3v5.607a3 3 0 01-3 3H3a3 3 0 01-3-3V3a3 3 0 013-3h5.607zM22 0a3 3 0 013 3v5.607a3 3 0 01-3 3h-5.607a3 3 0 01-3-3V3a3 3 0 013-3H22zM8.607 1.7H3a1.3 1.3 0 00-1.293 1.167L1.7 3v5.607A1.3 1.3 0 002.867 9.9L3 9.907h5.607A1.3 1.3 0 009.9 8.74l.007-.133V3A1.3 1.3 0 008.74 1.707L8.607 1.7zM22 1.7h-5.607A1.3 1.3 0 0015.1 2.867L15.093 3v5.607A1.3 1.3 0 0016.26 9.9l.133.007H22a1.3 1.3 0 001.293-1.167l.007-.133V3a1.3 1.3 0 00-1.167-1.293L22 1.7z"
              fill-rule="nonzero"/>
    </g>
</svg>
