<svg width="27" height="26" xmlns="http://www.w3.org/2000/svg">
    <g fill-rule="evenodd">
        <path d="M11.224.365c-2.912.664-5.28 3.005-5.99 5.918-.764 3.144.294 6.266 2.645 8.253a1.3 1.3 0 01-.1 2.07L1.31 21.004c-2.15 1.483-1.122 4.853 1.495 4.853h20.597c2.61 0 3.64-3.385 1.484-4.853l-6.52-4.435c-.676-.46-.742-1.45-.141-1.94a8.125 8.125 0 002.985-6.314 8.128 8.128 0 00-9.987-7.95zm8.287 7.95a6.426 6.426 0 01-2.36 4.996c-1.498 1.223-1.34 3.576.261 4.664l6.519 4.434c.775.529.404 1.748-.528 1.748H2.806c-.942 0-1.312-1.214-.534-1.75l6.463-4.396c1.641-1.117 1.758-3.49.242-4.773-1.865-1.576-2.702-4.043-2.091-6.553.557-2.288 2.433-4.142 4.716-4.662a6.428 6.428 0 017.909 6.292z" fill-rule="nonzero"/>
    </g>
</svg>
