<svg width="25" height="24" xmlns="http://www.w3.org/2000/svg">
    <g fill-rule="evenodd">
        <path d="M6.976 23.469c-.794 0-1.236-.567-1.236-1.44v-2.95h-.545c-3.38 0-5.195-1.86-5.195-5.195V5.195C0 1.86 1.815 0 5.195 0h14.61C23.185 0 25 1.872 25 5.195v8.689c0 3.323-1.815 5.195-5.195 5.195h-7.282L8.609 22.56c-.692.613-1.077.908-1.633.908zm.465-2.076l3.63-3.607c.43-.443.748-.533 1.384-.533h7.35c2.28 0 3.369-1.169 3.369-3.38V5.195c0-2.212-1.09-3.369-3.37-3.369H5.196c-2.291 0-3.369 1.157-3.369 3.37v8.677c0 2.211 1.078 3.38 3.37 3.38H6.59c.613 0 .851.238.851.85v3.29z"/>
    </g>
</svg>
