<svg width="25" height="25" xmlns="http://www.w3.org/2000/svg">
    <g fill-rule="evenodd">
        <path d="M19.529 0a5 5 0 015 5l-.001 7.515.13.13-.13.13V20a5 5 0 01-5 5H5.392a5 5 0 01-5-5V5a5 5 0 015-5h14.138zm-.64 9.455l-.034.034-5.735 8.003-.097.123a1.85 1.85 0 01-2.475.31l-.133-.103-3.746-3.195a.15.15 0 00-.154-.025l-.047.03-4.377 4.197V20a3.3 3.3 0 003.112 3.295l.188.005h14.138a3.3 3.3 0 003.294-3.113L22.83 20l-.001-6.782-3.745-3.747a.15.15 0 00-.194-.016zm.64-7.755H5.39a3.3 3.3 0 00-3.295 3.113L2.09 5v11.474l3.2-3.068a1.85 1.85 0 012.35-.175l.132.102 3.746 3.196a.15.15 0 00.174.014l.041-.036 5.74-8.008a1.85 1.85 0 012.58-.426l.12.093.112.103 2.542 2.544V5a3.3 3.3 0 00-3.112-3.295l-.187-.005z"
              fill-rule="nonzero"/>
    </g>
</svg>
