<svg width="44" height="44" xmlns="http://www.w3.org/2000/svg">
  <g stroke="#6D6D6D" fill="none" fill-rule="evenodd">
    <path d="M33 15.2v14.6a.999.999 0 01-.046.322 1.225 1.225 0 01-1.19.878H12.236C11.55 31 11 30.467 11 29.8V15.2c0-.656.55-1.2 1.237-1.2h19.526c.687 0 1.237.544 1.237 1.2z"/>
    <path d="M33 30.126c-.15.509-.62.874-1.194.874H12.24C11.551 31 11 30.47 11 29.806v-1.36L18.85 19l5.899 7.09 2.443-2.943L33 30.127zM29.857 18.5c0 .829-.703 1.5-1.57 1.5-.868 0-1.573-.671-1.573-1.5 0-.83.705-1.5 1.573-1.5.867 0 1.57.67 1.57 1.5z"/>
  </g>
</svg>
