<svg width="44" height="44" xmlns="http://www.w3.org/2000/svg">
  <path d="M20.393 27.785c-4.073 0-7.393-3.32-7.393-7.392C13 16.33 16.32 13 20.393 13c4.072 0 7.392 3.33 7.392 7.393 0 1.748-.605 3.35-1.63 4.619l4.95 4.95a.9.9 0 01.254.645c0 .508-.361.928-.908.928a.916.916 0 01-.644-.264l-4.971-4.98a7.333 7.333 0 01-4.443 1.494zm0-1.24c3.378 0 6.152-2.774 6.152-6.152 0-3.37-2.774-6.153-6.152-6.153-3.38 0-6.153 2.783-6.153 6.153 0 3.378 2.774 6.152 6.153 6.152z" fill="#161616" fill-rule="evenodd"/>
</svg>
