<svg xmlns="http://www.w3.org/2000/svg" width="2000" height="1680" viewBox="0 0 2000 1680">
  <g fill="none" fill-rule="evenodd">
    <path fill="#E4E8FF" d="M512.594356,42.1166636 L1719.29674,411.187665 C1795.32707,434.474715 1838.12339,514.96289 1814.91361,591.01684 L1524.19529,1542.28749 C1500.98189,1618.35326 1420.48318,1661.16653 1344.42666,1637.92286 C1344.41657,1637.91977 1344.40648,1637.91669 1344.40564,1637.88334 L137.703256,1268.81233 C61.6729282,1245.52529 18.8766085,1165.03711 42.0863918,1088.98316 L332.804708,137.712511 C356.018111,61.6467405 436.516822,18.8334688 512.573341,42.0771411 C512.583432,42.080225 512.593523,42.08331 512.594356,42.1166636 Z"/>
    <g fill="#D8D8D8" transform="translate(1698 840)">
      <circle cx="4.5" cy="4.5" r="4.5"/>
      <circle cx="4.5" cy="36.5" r="4.5"/>
      <circle cx="35.5" cy="4.5" r="4.5"/>
      <circle cx="35.5" cy="36.5" r="4.5"/>
      <circle cx="68.5" cy="4.5" r="4.5"/>
      <circle cx="68.5" cy="36.5" r="4.5"/>
      <circle cx="98.5" cy="4.5" r="4.5"/>
      <circle cx="98.5" cy="36.5" r="4.5"/>
      <circle cx="129.5" cy="4.5" r="4.5"/>
      <circle cx="129.5" cy="36.5" r="4.5"/>
      <circle cx="159.5" cy="4.5" r="4.5"/>
      <circle cx="159.5" cy="36.5" r="4.5"/>
      <circle cx="192.5" cy="4.5" r="4.5"/>
      <circle cx="192.5" cy="36.5" r="4.5"/>
      <circle cx="224.5" cy="4.5" r="4.5"/>
      <circle cx="224.5" cy="36.5" r="4.5"/>
      <circle cx="4.5" cy="69.5" r="4.5"/>
      <circle cx="35.5" cy="69.5" r="4.5"/>
      <circle cx="68.5" cy="69.5" r="4.5"/>
      <circle cx="98.5" cy="69.5" r="4.5"/>
      <circle cx="129.5" cy="69.5" r="4.5"/>
      <circle cx="159.5" cy="69.5" r="4.5"/>
      <circle cx="192.5" cy="69.5" r="4.5"/>
      <circle cx="224.5" cy="69.5" r="4.5"/>
      <circle cx="4.5" cy="99.5" r="4.5"/>
      <circle cx="35.5" cy="99.5" r="4.5"/>
      <circle cx="68.5" cy="99.5" r="4.5"/>
      <circle cx="98.5" cy="99.5" r="4.5"/>
      <circle cx="129.5" cy="99.5" r="4.5"/>
      <circle cx="159.5" cy="99.5" r="4.5"/>
      <circle cx="192.5" cy="99.5" r="4.5"/>
      <circle cx="224.5" cy="99.5" r="4.5"/>
      <circle cx="4.5" cy="130.5" r="4.5"/>
      <circle cx="35.5" cy="130.5" r="4.5"/>
      <circle cx="68.5" cy="130.5" r="4.5"/>
      <circle cx="98.5" cy="130.5" r="4.5"/>
      <circle cx="129.5" cy="130.5" r="4.5"/>
      <circle cx="159.5" cy="130.5" r="4.5"/>
      <circle cx="192.5" cy="130.5" r="4.5"/>
      <circle cx="224.5" cy="130.5" r="4.5"/>
      <circle cx="4.5" cy="160.5" r="4.5"/>
      <circle cx="35.5" cy="160.5" r="4.5"/>
      <circle cx="68.5" cy="160.5" r="4.5"/>
      <circle cx="98.5" cy="160.5" r="4.5"/>
      <circle cx="129.5" cy="160.5" r="4.5"/>
      <circle cx="159.5" cy="160.5" r="4.5"/>
      <circle cx="192.5" cy="160.5" r="4.5"/>
      <circle cx="224.5" cy="160.5" r="4.5"/>
      <circle cx="4.5" cy="193.5" r="4.5"/>
      <circle cx="35.5" cy="193.5" r="4.5"/>
      <circle cx="68.5" cy="193.5" r="4.5"/>
      <circle cx="98.5" cy="193.5" r="4.5"/>
      <circle cx="129.5" cy="193.5" r="4.5"/>
      <circle cx="159.5" cy="193.5" r="4.5"/>
      <circle cx="192.5" cy="193.5" r="4.5"/>
      <circle cx="224.5" cy="193.5" r="4.5"/>
      <circle cx="4.5" cy="225.5" r="4.5"/>
      <circle cx="35.5" cy="225.5" r="4.5"/>
      <circle cx="68.5" cy="225.5" r="4.5"/>
      <circle cx="98.5" cy="225.5" r="4.5"/>
      <circle cx="129.5" cy="225.5" r="4.5"/>
      <circle cx="159.5" cy="225.5" r="4.5"/>
      <circle cx="192.5" cy="225.5" r="4.5"/>
      <circle cx="224.5" cy="225.5" r="4.5"/>
    </g>
    <circle cx="1900.5" cy="1531.5" r="58.5" stroke="#E4E8FF" stroke-width="4"/>
  </g>
</svg>
