<svg xmlns="http://www.w3.org/2000/svg" viewBox="0 0 80 80">
  <g fill="none" fill-rule="evenodd">
    <rect width="80" height="80" fill="#E4EDFF" rx="6"/>
    <g fill-rule="nonzero" transform="translate(18 18)">
      <path fill="#0C13BD" d="M42.75,0 L2.25,0 C1.00735931,0 0,1.00735931 0,2.25 L0,42.75 C0,43.9926407 1.00735931,45 2.25,45 L42.75,45 C43.9926407,45 45,43.9926407 45,42.75 L45,2.25 C45,1.00735931 43.9926407,0 42.75,0 Z M43.5,42.75 C43.5,43.1642136 43.1642136,43.5 42.75,43.5 L2.25,43.5 C1.83578644,43.5 1.5,43.1642136 1.5,42.75 L1.5,7.5 L43.5,7.5 L43.5,42.75 Z M1.5,6 L1.5,2.25 C1.5,1.83578644 1.83578644,1.5 2.25,1.5 L42.75,1.5 C43.1642136,1.5 43.5,1.83578644 43.5,2.25 L43.5,6 L1.5,6 Z"/>
      <path fill="#0C13BD" d="M3.62001489 3.07539844C3.3687974 3.16654015 3.17096151 3.36486026 3.08004234 3.61669263 2.97331922 3.85936507 2.97331922 4.13584164 3.08004234 4.37851408 3.12836293 4.5011887 3.19963941 4.61346875 3.29003166 4.70930497 3.38728741 4.79776914 3.49888176 4.86895754 3.62001489 4.91980827 3.74023109 4.97117205 3.86932496 4.99841623 4 5 4.06374975 4.99828563 4.127273 4.99158261 4.18998592 4.97995207 4.25621727 4.97065902 4.32043262 4.95033086 4.37997626 4.91980827 4.4437111 4.89790054 4.50424282 4.8675606 4.55996712 4.82959257 4.61235794 4.79259132 4.66244842 4.75242086 4.70995949 4.70930497 5.09668017 4.31402378 5.09668017 3.68118292 4.70995949 3.28590173 4.42024563 3.0056335 3.99286523 2.92309262 3.62001489 3.07539844zM7.37997626 3.08243697C7.1386075 2.97252101 6.86138366 2.97252101 6.62001489 3.08243697 6.3687974 3.17324755 6.17096151 3.37084715 6.08004234 3.62176459 5.97331922 3.86355538 5.97331922 4.13902749 6.08004234 4.38081828 6.12836293 4.50304722 6.19963941 4.61491934 6.29003166 4.71040738 6.38728741 4.79855016 6.49888176 4.86947992 6.62001489 4.9201459 6.86212085 5.02661803 7.1378703 5.02661803 7.37997626 4.9201459 7.50235136 4.87188302 7.61435726 4.80069167 7.70995949 4.71040738 8.09668017 4.31656228 8.09668017 3.68602059 7.70995949 3.29217549 7.61435726 3.2018912 7.50235136 3.13069985 7.37997626 3.08243697zM10.7100464 3.28847127C10.4224857 3.00447304 9.99244347 2.9215468 9.62004639 3.07828353 9.4989071 3.12905803 9.38730709 3.20013971 9.2900464 3.28847127 9.19964956 3.38416383 9.12836945 3.49627556 9.0800464 3.61876629 8.97331787 3.86107495 8.97331787 4.13713706 9.0800464 4.37944572 9.12836945 4.50193645 9.19964956 4.61404818 9.2900464 4.70974074 9.38730709 4.7980723 9.4989071 4.86915398 9.62004639 4.91992848 9.7402687 4.97121526 9.86936912 4.9984186 10.0000464 5 10.2647732 4.99611615 10.5183034 4.892469 10.7100464 4.70974074 10.8004432 4.61404818 10.8717233 4.50193645 10.9200464 4.37944572 11.0266512 4.137111 11.0266512 3.86110101 10.9200464 3.61876629 10.8717233 3.49627556 10.8004432 3.38416383 10.7100464 3.28847127z"/>
      <path fill="#0209BA" d="M5.25,42 L39.75,42 C40.9926407,42 42,40.9926407 42,39.75 L42,11.25 C42,10.0073593 40.9926407,9 39.75,9 L17.25,9 C16.0073593,9 15,10.0073593 15,11.25 L15,19.5 L5.25,19.5 C4.00735931,19.5 3,20.5073593 3,21.75 L3,39.75 C3,40.9926407 4.00735931,42 5.25,42 Z M4.5,39.75 L4.5,39 L16.5,39 L16.5,39.75 C16.5,40.1642136 16.1642136,40.5 15.75,40.5 L5.25,40.5 C4.83578644,40.5 4.5,40.1642136 4.5,39.75 Z M4.5,24 L16.5,24 L16.5,37.5 L4.5,37.5 L4.5,24 Z M40.5,36 L18,36 L18,21.75 C17.9960615,20.7999109 17.3957631,19.9546909 16.5,19.638 L16.5,15 L40.5,15 L40.5,36 Z M28.5,39.75 C28.0857864,39.75 27.75,39.4142136 27.75,39 C27.75,38.5857864 28.0857864,38.25 28.5,38.25 C28.9142136,38.25 29.25,38.5857864 29.25,39 C29.25,39.4142136 28.9142136,39.75 28.5,39.75 Z M26.835,40.5 L17.862,40.5 C17.9508283,40.2598073 17.9975142,40.0060798 18,39.75 L18,37.5 L26.835,37.5 C26.0549632,38.3478856 26.0549632,39.6521144 26.835,40.5 L26.835,40.5 Z M39.75,40.5 L30.165,40.5 C30.9450368,39.6521144 30.9450368,38.3478856 30.165,37.5 L40.5,37.5 L40.5,39.75 C40.5,40.1642136 40.1642136,40.5 39.75,40.5 Z M17.25,10.5 L39.75,10.5 C40.1642136,10.5 40.5,10.8357864 40.5,11.25 L40.5,13.5 L16.5,13.5 L16.5,11.25 C16.5,10.8357864 16.8357864,10.5 17.25,10.5 Z M5.25,21 L15.75,21 C16.1642136,21 16.5,21.3357864 16.5,21.75 L16.5,22.5 L4.5,22.5 L4.5,21.75 C4.5,21.3357864 4.83578644,21 5.25,21 Z"/>
      <path fill="#0C13BD" d="M29,13 C29.2647269,12.9960952 29.518257,12.8918901 29.71,12.7081781 C29.8941958,12.5162966 29.9980257,12.2604953 30,11.9937177 C29.99842,11.8622195 29.971241,11.732308 29.92,11.6113304 C29.8741036,11.4869513 29.802531,11.3737734 29.71,11.2792572 C29.3089802,10.9069143 28.6910198,10.9069143 28.29,11.2792572 C28.197469,11.3737734 28.1258964,11.4869513 28.08,11.6113304 C28.028759,11.732308 28.00158,11.8622195 28,11.9937177 C28.0019743,12.2604953 28.1058042,12.5162966 28.29,12.7081781 C28.481743,12.8918901 28.7352731,12.9960952 29,13 L29,13 Z"/>
    </g>
  </g>
</svg>
