<svg xmlns="http://www.w3.org/2000/svg" width="151" height="140" viewBox="0 0 151 140">
  <g fill="none" fill-rule="evenodd">
    <rect width="151" height="140" fill="#FBF0B8" rx="23"/>
    <path fill="#E58100" fill-rule="nonzero" stroke="#E58100" d="M26.4025066,88 C32.9054081,87.9971259 39.1762934,85.5830643 44.0013732,81.225157 C52.1133508,88.5124311 63.8774369,90.0554838 73.5970583,85.1078385 C83.3166799,80.1601929 88.9853252,69.7431558 87.8581842,58.900276 C86.7310433,48.0566805 79.0415645,39.0266731 68.5120343,36.1810434 C72.918912,25.1678267 69.4307902,12.5693308 59.9854349,5.38654944 C50.5407958,-1.79551648 37.4612346,-1.79551648 28.0165955,5.38654944 C18.5719562,12.5693308 15.0831184,25.1678267 19.4907122,36.1810434 C6.71978994,39.6357352 -1.51464073,52.0102165 0.233358631,65.1168605 C1.98135799,78.2235044 13.1725645,88.0085771 26.4025066,88 Z M38.1350692,61.6163638 C38.1315039,58.4780121 38.7616716,55.3718671 39.9883504,52.4832953 C42.6443642,52.9341872 45.3576662,52.9341872 48.01368,52.4832953 C51.5282974,60.7682574 49.9672,70.3350409 44.0013732,77.075519 C40.2232311,72.8113688 38.1365166,67.3126331 38.1350692,61.6163638 Z M46.6000992,49.7435894 C44.8735828,49.9468487 43.1291638,49.9468487 41.4026474,49.7435894 C42.1538359,48.4689247 43.0238971,47.2679774 44.0013732,46.1564929 C44.9781332,47.2679774 45.8481944,48.4689247 46.6000992,49.7435894 Z M46.0723336,44.0873994 C51.0084089,39.6572062 57.6079838,37.5537592 64.1989658,38.3109715 C61.0022967,43.7252545 55.7690398,47.633701 49.6678702,49.1645869 C48.673924,47.3345376 47.4665798,45.628305 46.0723336,44.0816738 L46.0723336,44.0873994 Z M38.3341602,49.1760381 C32.2315583,47.6430051 26.9975855,43.7295486 23.8037808,38.3109715 C30.3926142,37.5508964 36.9921892,39.6493336 41.9304128,44.0752325 C40.5347345,45.626158 39.3281066,47.3366848 38.3341602,49.1703125 L38.3341602,49.1760381 Z M85.0654296,61.6163638 C85.0811496,70.8439048 79.6717322,79.2204767 71.2518319,83.0072541 C62.8312153,86.7940315 52.9712383,85.283901 46.0723336,79.1510537 C52.7599889,71.7256493 54.6376024,61.1440007 50.9117356,51.8735175 C57.9130424,49.9647412 63.8244456,45.2690228 67.2653047,38.8835328 C77.709619,41.4894024 85.0446284,50.8572212 85.0654296,61.6163638 L85.0654296,61.6163638 Z M44.0013732,2.98608608 C51.8684448,2.98608608 59.2120472,6.92673935 63.5587726,13.4804191 C67.9047817,20.0340989 68.6767373,28.329081 65.6125466,35.5712656 C57.802763,34.2930226 49.837586,36.6655736 44.0013732,42.0075705 C38.1651606,36.6655736 30.1999834,34.2930226 22.3894838,35.5712656 C19.3260093,28.329081 20.0972487,20.0340989 24.4439738,13.4804191 C28.7906992,6.92673935 36.1343018,2.98608608 44.0013732,2.98608608 L44.0013732,2.98608608 Z M20.7352936,38.8835328 C24.1768687,45.2690228 30.0882719,49.9647412 37.0895788,51.8735175 C33.3629958,61.1440007 35.2406094,71.7256493 41.9289807,79.1510537 C34.6440984,85.6066825 24.1245935,86.8899354 15.5006046,82.3738582 C6.87589959,77.8584965 1.9426887,68.4849523 3.10563463,58.8236961 C4.26858057,49.1624397 11.2856417,41.2260242 20.7352936,38.8835328 Z" transform="translate(32 26)"/>
  </g>
</svg>
