<svg xmlns="http://www.w3.org/2000/svg" width="151" height="140" viewBox="0 0 151 140">
  <g fill="none" fill-rule="evenodd">
    <rect width="151" height="140" fill="#FFE4E4" rx="23"/>
    <g fill="#B00" fill-rule="nonzero" transform="translate(36 30)">
      <path d="M76,33.3333333 C78.209139,33.3333333 80,31.5424723 80,29.3333333 C80,27.1241943 78.209139,25.3333333 76,25.3333333 L72,25.3333333 L72,22.6666667 L76,22.6666667 C78.209139,22.6666667 80,20.8758057 80,18.6666667 C80,16.4575277 78.209139,14.6666667 76,14.6666667 L72,14.6666667 L72,12 C71.9973676,11.6465172 71.8589277,11.3075781 71.6133333,11.0533333 L68.9466667,8.38666667 C68.6924219,8.14107231 68.3534828,8.00263238 68,8 L65.3333333,8 L65.3333333,4 C65.3333333,1.790861 63.5424723,0 61.3333333,0 C59.1241943,0 57.3333333,1.790861 57.3333333,4 L57.3333333,8 L54.6666667,8 L54.6666667,4 C54.6666667,1.790861 52.8758057,0 50.6666667,0 C48.4575277,0 46.6666667,1.790861 46.6666667,4 L46.6666667,8 L44,8 L44,4 C44,1.790861 42.209139,0 40,0 C37.790861,0 36,1.790861 36,4 L36,8 L33.3333333,8 L33.3333333,4 C33.3333333,1.790861 31.5424723,0 29.3333333,0 C27.1241943,0 25.3333333,1.790861 25.3333333,4 L25.3333333,8 L22.6666667,8 L22.6666667,4 C22.6666667,1.790861 20.8758057,0 18.6666667,0 C16.4575277,0 14.6666667,1.790861 14.6666667,4 L14.6666667,8 L12,8 C11.6465172,8.00263238 11.3075781,8.14107231 11.0533333,8.38666667 L8.38666667,11.0533333 C8.14107231,11.3075781 8.00263238,11.6465172 8,12 L8,14.6666667 L4,14.6666667 C1.790861,14.6666667 0,16.4575277 0,18.6666667 C0,20.8758057 1.790861,22.6666667 4,22.6666667 L8,22.6666667 L8,25.3333333 L4,25.3333333 C1.790861,25.3333333 0,27.1241943 0,29.3333333 C0,31.5424723 1.790861,33.3333333 4,33.3333333 L8,33.3333333 L8,36 L4,36 C1.790861,36 0,37.790861 0,40 C0,42.209139 1.790861,44 4,44 L8,44 L8,46.6666667 L4,46.6666667 C1.790861,46.6666667 0,48.4575277 0,50.6666667 C0,52.8758057 1.790861,54.6666667 4,54.6666667 L8,54.6666667 L8,57.3333333 L4,57.3333333 C1.790861,57.3333333 0,59.1241943 0,61.3333333 C0,63.5424723 1.790861,65.3333333 4,65.3333333 L8,65.3333333 L8,68 C8.00263238,68.3534828 8.14107231,68.6924219 8.38666667,68.9466667 L11.0533333,71.6133333 C11.3075781,71.8589277 11.6465172,71.9973676 12,72 L14.6666667,72 L14.6666667,76 C14.6666667,78.209139 16.4575277,80 18.6666667,80 C20.8758057,80 22.6666667,78.209139 22.6666667,76 L22.6666667,72 L25.3333333,72 L25.3333333,76 C25.3333333,78.209139 27.1241943,80 29.3333333,80 C31.5424723,80 33.3333333,78.209139 33.3333333,76 L33.3333333,72 L36,72 L36,76 C36,78.209139 37.790861,80 40,80 C42.209139,80 44,78.209139 44,76 L44,72 L46.6666667,72 L46.6666667,76 C46.6666667,78.209139 48.4575277,80 50.6666667,80 C52.8758057,80 54.6666667,78.209139 54.6666667,76 L54.6666667,72 L57.3333333,72 L57.3333333,76 C57.3333333,78.209139 59.1241943,80 61.3333333,80 C63.5424723,80 65.3333333,78.209139 65.3333333,76 L65.3333333,72 L68,72 C68.3534828,71.9973676 68.6924219,71.8589277 68.9466667,71.6133333 L71.6133333,68.9466667 C71.8589277,68.6924219 71.9973676,68.3534828 72,68 L72,65.3333333 L76,65.3333333 C78.209139,65.3333333 80,63.5424723 80,61.3333333 C80,59.1241943 78.209139,57.3333333 76,57.3333333 L72,57.3333333 L72,54.6666667 L76,54.6666667 C78.209139,54.6666667 80,52.8758057 80,50.6666667 C80,48.4575277 78.209139,46.6666667 76,46.6666667 L72,46.6666667 L72,44 L76,44 C78.209139,44 80,42.209139 80,40 C80,37.790861 78.209139,36 76,36 L72,36 L72,33.3333333 L76,33.3333333 Z M72,17.3333333 L76,17.3333333 C76.7363797,17.3333333 77.3333333,17.930287 77.3333333,18.6666667 C77.3333333,19.4030463 76.7363797,20 76,20 L72,20 L72,17.3333333 Z M72,28 L76,28 C76.7363797,28 77.3333333,28.5969537 77.3333333,29.3333333 C77.3333333,30.069713 76.7363797,30.6666667 76,30.6666667 L72,30.6666667 L72,28 Z M8,62.6666667 L4,62.6666667 C3.26362033,62.6666667 2.66666667,62.069713 2.66666667,61.3333333 C2.66666667,60.5969537 3.26362033,60 4,60 L8,60 L8,62.6666667 Z M8,52 L4,52 C3.26362033,52 2.66666667,51.4030463 2.66666667,50.6666667 C2.66666667,49.930287 3.26362033,49.3333333 4,49.3333333 L8,49.3333333 L8,52 Z M8,41.3333333 L4,41.3333333 C3.26362033,41.3333333 2.66666667,40.7363797 2.66666667,40 C2.66666667,39.2636203 3.26362033,38.6666667 4,38.6666667 L8,38.6666667 L8,41.3333333 Z M8,30.6666667 L4,30.6666667 C3.26362033,30.6666667 2.66666667,30.069713 2.66666667,29.3333333 C2.66666667,28.5969537 3.26362033,28 4,28 L8,28 L8,30.6666667 Z M8,20 L4,20 C3.26362033,20 2.66666667,19.4030463 2.66666667,18.6666667 C2.66666667,17.930287 3.26362033,17.3333333 4,17.3333333 L8,17.3333333 L8,20 Z M60,4 C60,3.26362033 60.5969537,2.66666667 61.3333333,2.66666667 C62.069713,2.66666667 62.6666667,3.26362033 62.6666667,4 L62.6666667,8 L60,8 L60,4 Z M49.3333333,4 C49.3333333,3.26362033 49.930287,2.66666667 50.6666667,2.66666667 C51.4030463,2.66666667 52,3.26362033 52,4 L52,8 L49.3333333,8 L49.3333333,4 Z M38.6666667,4 C38.6666667,3.26362033 39.2636203,2.66666667 40,2.66666667 C40.7363797,2.66666667 41.3333333,3.26362033 41.3333333,4 L41.3333333,8 L38.6666667,8 L38.6666667,4 Z M28,4 C28,3.26362033 28.5969537,2.66666667 29.3333333,2.66666667 C30.069713,2.66666667 30.6666667,3.26362033 30.6666667,4 L30.6666667,8 L28,8 L28,4 Z M17.3333333,4 C17.3333333,3.26362033 17.930287,2.66666667 18.6666667,2.66666667 C19.4030463,2.66666667 20,3.26362033 20,4 L20,8 L17.3333333,8 L17.3333333,4 Z M20,76 C20,76.7363797 19.4030463,77.3333333 18.6666667,77.3333333 C17.930287,77.3333333 17.3333333,76.7363797 17.3333333,76 L17.3333333,72 L20,72 L20,76 Z M30.6666667,76 C30.6666667,76.7363797 30.069713,77.3333333 29.3333333,77.3333333 C28.5969537,77.3333333 28,76.7363797 28,76 L28,72 L30.6666667,72 L30.6666667,76 Z M41.3333333,76 C41.3333333,76.7363797 40.7363797,77.3333333 40,77.3333333 C39.2636203,77.3333333 38.6666667,76.7363797 38.6666667,76 L38.6666667,72 L41.3333333,72 L41.3333333,76 Z M52,76 C52,76.7363797 51.4030463,77.3333333 50.6666667,77.3333333 C49.930287,77.3333333 49.3333333,76.7363797 49.3333333,76 L49.3333333,72 L52,72 L52,76 Z M62.6666667,76 C62.6666667,76.7363797 62.069713,77.3333333 61.3333333,77.3333333 C60.5969537,77.3333333 60,76.7363797 60,76 L60,72 L62.6666667,72 L62.6666667,76 Z M69.3333333,67.4533333 L67.4533333,69.3333333 L12.5466667,69.3333333 L10.6666667,67.4533333 L10.6666667,12.5466667 L12.5466667,10.6666667 L67.4533333,10.6666667 L69.3333333,12.5466667 L69.3333333,67.4533333 Z M76,60 C76.7363797,60 77.3333333,60.5969537 77.3333333,61.3333333 C77.3333333,62.069713 76.7363797,62.6666667 76,62.6666667 L72,62.6666667 L72,60 L76,60 Z M76,49.3333333 C76.7363797,49.3333333 77.3333333,49.930287 77.3333333,50.6666667 C77.3333333,51.4030463 76.7363797,52 76,52 L72,52 L72,49.3333333 L76,49.3333333 Z M76,38.6666667 C76.7363797,38.6666667 77.3333333,39.2636203 77.3333333,40 C77.3333333,40.7363797 76.7363797,41.3333333 76,41.3333333 L72,41.3333333 L72,38.6666667 L76,38.6666667 Z"/>
      <path d="M65.5918367,13.0612245 L14.4081633,13.0612245 C13.6642695,13.0612245 13.0612245,13.6642695 13.0612245,14.4081633 L13.0612245,65.5918367 C13.0612245,66.3357305 13.6642695,66.9387755 14.4081633,66.9387755 L65.5918367,66.9387755 C66.3357305,66.9387755 66.9387755,66.3357305 66.9387755,65.5918367 L66.9387755,14.4081633 C66.9387755,13.6642695 66.3357305,13.0612245 65.5918367,13.0612245 Z M64.244898,64.244898 L15.755102,64.244898 L15.755102,15.755102 L64.244898,15.755102 L64.244898,64.244898 Z"/>
      <circle cx="22.041" cy="22.041" r="2.449"/>
    </g>
  </g>
</svg>
