<svg xmlns="http://www.w3.org/2000/svg" viewBox="0 0 135 40">
	<defs>
		<linearGradient id="playstore-a" x1="60.939%" x2="26.657%" y1="4.95%" y2="71.926%">
			<stop offset="0%" stop-color="#00A0FF"/>
			<stop offset=".657%" stop-color="#00A1FF"/>
			<stop offset="26.01%" stop-color="#00BEFF"/>
			<stop offset="51.22%" stop-color="#00D2FF"/>
			<stop offset="76.04%" stop-color="#00DFFF"/>
			<stop offset="100%" stop-color="#00E3FF"/>
		</linearGradient>
		<linearGradient id="playstore-b" x1="107.63%" x2="-130.552%" y1="50%" y2="50%">
			<stop offset="0%" stop-color="#FFE000"/>
			<stop offset="40.87%" stop-color="#FFBD00"/>
			<stop offset="77.54%" stop-color="orange"/>
			<stop offset="100%" stop-color="#FF9C00"/>
		</linearGradient>
		<linearGradient id="playstore-c" x1="86.243%" x2="-50.129%" y1="30.745%" y2="136.736%">
			<stop offset="0%" stop-color="#FF3A44"/>
			<stop offset="100%" stop-color="#C31162"/>
		</linearGradient>
		<linearGradient id="playstore-d" x1="-18.811%" x2="42.085%" y1="-12.34%" y2="34.962%">
			<stop offset="0%" stop-color="#32A071"/>
			<stop offset="6.85%" stop-color="#2DA771"/>
			<stop offset="47.62%" stop-color="#15CF74"/>
			<stop offset="80.09%" stop-color="#06E775"/>
			<stop offset="100%" stop-color="#00F076"/>
		</linearGradient>
	</defs>
	<g fill="none" fill-rule="evenodd">
		<path fill="#000" fill-rule="nonzero" d="M129.993377,40 L5.00165563,40 C2.24503311,40 0,37.7456359 0,35 L0,5 C0,2.24438903 2.24503311,0 5.00165563,0 L129.993377,0 C132.747517,0 134.995033,2.24438903 134.995033,5 L134.995033,35 C134.995033,37.7456359 132.747517,40 129.993377,40 Z"/>
		<path fill="#A6A6A6" d="M129.993377,0.800498753 C132.305464,0.800498753 134.197848,2.6882793 134.197848,5 L134.197848,35 C134.197848,37.3117207 132.317881,39.1995012 129.993377,39.1995012 L5.00165563,39.1995012 C2.68956954,39.1995012 0.79718543,37.3117207 0.79718543,35 L0.79718543,5 C0.79718543,2.6882793 2.67715232,0.800498753 5.00165563,0.800498753 C5.00165563,0.800498753 129.993377,0.800498753 129.993377,0.800498753 Z M129.993377,0 L5.00165563,0 C2.24503311,0 0,2.25436409 0,5 L0,35 C0,37.755611 2.24503311,40 5.00165563,40 L129.993377,40 C132.747517,40 134.995033,37.755611 134.995033,35 L134.995033,5 C134.995033,2.25436409 132.747517,0 129.993377,0 Z"/>
		<path fill="#FFF" fill-rule="nonzero" d="M71.115894,13.2319202 C70.214404,13.2319202 69.4544702,12.915212 68.8534768,12.2917706 C68.2574503,11.6857855 67.9246689,10.8503741 67.9395695,9.99750623 C67.9395695,9.0872818 68.2475166,8.31670823 68.8534768,7.70573566 C69.4519868,7.08229426 70.2119205,6.76558603 71.1134106,6.76558603 C72.0049669,6.76558603 72.7649007,7.08229426 73.3758278,7.70573566 C73.9817881,8.33665835 74.2897351,9.10723192 74.2897351,9.99750623 C74.2798013,10.9102244 73.9718543,11.680798 73.3758278,12.2892768 C72.7773179,12.9177057 72.0173841,13.2319202 71.115894,13.2319202 Z M44.2922185,13.2319202 C43.410596,13.2319202 42.6456954,12.9201995 42.0198675,12.3042394 C41.3990066,11.6907731 41.0836093,10.915212 41.0836093,10 C41.0836093,9.08478803 41.3990066,8.30922693 42.0198675,7.6957606 C42.6332781,7.0798005 43.3981788,6.7680798 44.2922185,6.7680798 C44.7293046,6.7680798 45.1539735,6.8553616 45.5612583,7.03241895 C45.9610927,7.20448878 46.2864238,7.43890274 46.5273179,7.72568579 L46.5869205,7.79800499 L45.9139073,8.46134663 L45.8443709,8.37905237 C45.464404,7.92518703 44.955298,7.7032419 44.2822848,7.7032419 C43.6812914,7.7032419 43.1572848,7.91770574 42.7251656,8.34164589 C42.2905629,8.7680798 42.0695364,9.32668329 42.0695364,10.0024938 C42.0695364,10.6783042 42.2905629,11.2369077 42.7251656,11.6633416 C43.1572848,12.0872818 43.6812914,12.3017456 44.2822848,12.3017456 C44.9230132,12.3017456 45.4619205,12.0872818 45.8816225,11.6633416 C46.1299669,11.4139651 46.2839404,11.0648379 46.3385762,10.6234414 L44.1804636,10.6234414 L44.1804636,9.69077307 L47.2649007,9.69077307 L47.2773179,9.7755611 C47.2996689,9.93266833 47.3220199,10.0947631 47.3220199,10.244389 C47.3220199,11.1047382 47.0637417,11.8004988 46.5521523,12.3142145 C45.9710265,12.9226933 45.2110927,13.2319202 44.2922185,13.2319202 Z M79.9569536,13.0997506 L79.0057947,13.0997506 L76.0927152,8.41895262 L76.1175497,9.26184539 L76.1175497,13.0972569 L75.1663907,13.0972569 L75.1663907,6.90024938 L76.2516556,6.90024938 L76.281457,6.94763092 L79.0206954,11.3566085 L78.9958609,10.5162095 L78.9958609,6.90024938 L79.9569536,6.90024938 L79.9569536,13.0997506 L79.9569536,13.0997506 Z M63.968543,13.0997506 L63.0049669,13.0997506 L63.0049669,7.83291771 L61.3336093,7.83291771 L61.3336093,6.90024938 L65.6374172,6.90024938 L65.6374172,7.83291771 L63.9660596,7.83291771 L63.9660596,13.0997506 L63.968543,13.0997506 Z M60.5488411,13.0997506 L59.5877483,13.0997506 L59.5877483,6.90024938 L60.5488411,6.90024938 L60.5488411,13.0997506 Z M55.147351,13.0997506 L54.1862583,13.0997506 L54.1862583,7.83291771 L52.5149007,7.83291771 L52.5149007,6.90024938 L56.8187086,6.90024938 L56.8187086,7.83291771 L55.147351,7.83291771 L55.147351,13.0997506 Z M51.906457,13.0897756 L48.2210265,13.0897756 L48.2210265,6.90024938 L51.906457,6.90024938 L51.906457,7.83291771 L49.1846026,7.83291771 L49.1846026,9.53366584 L51.6407285,9.53366584 L51.6407285,10.4563591 L49.1846026,10.4563591 L49.1846026,12.1571072 L51.906457,12.1571072 L51.906457,13.0897756 Z M69.5587748,11.6508728 C69.9884106,12.0822943 70.5099338,12.2992519 71.115894,12.2992519 C71.7392384,12.2992519 72.2483444,12.0872818 72.6730132,11.6508728 C73.0951987,11.2269327 73.3087748,10.6708229 73.3087748,10 C73.3087748,9.32917706 73.0951987,8.77057357 72.6754967,8.34912718 C72.2458609,7.91770574 71.7218543,7.70074813 71.1183775,7.70074813 C70.4950331,7.70074813 69.9859272,7.9127182 69.5637417,8.34912718 C69.1415563,8.77306733 68.9279801,9.32917706 68.9279801,10 C68.9279801,10.6708229 69.1390728,11.2294264 69.5587748,11.6508728 L69.5587748,11.6508728 Z"/>
		<path fill="#FFF" d="M67.8501656,21.755611 C65.5033113,21.755611 63.6009934,23.5436409 63.6009934,26.0099751 C63.6009934,28.4538653 65.5157285,30.2643392 67.8501656,30.2643392 C70.1970199,30.2643392 72.0993377,28.4638404 72.0993377,26.0099751 C72.0993377,23.5436409 70.1970199,21.755611 67.8501656,21.755611 Z M67.8501656,28.5785536 C66.5662252,28.5785536 65.4610927,27.5112219 65.4610927,26 C65.4610927,24.4663342 66.5687086,23.4214464 67.8501656,23.4214464 C69.134106,23.4214464 70.2392426,24.4663342 70.2392426,26 C70.2417219,27.521197 69.134106,28.5785536 67.8501656,28.5785536 Z M58.5794702,21.755611 C56.2326159,21.755611 54.330298,23.5436409 54.330298,26.0099751 C54.330298,28.4538653 56.2450331,30.2643392 58.5794702,30.2643392 C60.9263245,30.2643392 62.8286424,28.4638404 62.8286424,26.0099751 C62.8286424,23.5436409 60.9238411,21.755611 58.5794702,21.755611 Z M58.5794702,28.5785536 C57.2955298,28.5785536 56.1903974,27.5112219 56.1903974,26 C56.1903974,24.4663342 57.2980132,23.4214464 58.5794702,23.4214464 C59.8634106,23.4214464 60.968543,24.4663342 60.968543,26 C60.968543,27.521197 59.8634106,28.5785536 58.5794702,28.5785536 Z M47.5480132,23.0548628 L47.5480132,24.8553616 L51.8518212,24.8553616 C51.7201987,25.8653367 51.3874172,26.6109726 50.8783113,27.1221945 C50.2475166,27.755611 49.2740066,28.4438903 47.557947,28.4438903 C44.9130795,28.4438903 42.8443709,26.2992519 42.8443709,23.6433915 C42.8443709,20.9875312 44.9130795,18.8428928 47.557947,18.8428928 C48.9859272,18.8428928 50.0264901,19.4089776 50.7988411,20.1321696 L52.0703642,18.8553616 C50.9975166,17.8229426 49.5695364,17.032419 47.5678808,17.032419 C43.9395695,17.032419 40.8948675,20 40.8948675,23.6334165 C40.8948675,27.276808 43.9370861,30.234414 47.5678808,30.234414 C49.5273179,30.234414 50.9975166,29.5910224 52.1597682,28.3790524 C53.3443709,27.1895262 53.7193709,25.5112219 53.7193709,24.1571072 C53.7193709,23.7356608 53.6870861,23.3566085 53.6200331,23.0349127 L47.5455298,23.0349127 C47.5480132,23.032419 47.5480132,23.0548628 47.5480132,23.0548628 Z M92.669702,24.4563591 C92.3145695,23.5012469 91.2417219,21.7456359 89.0413907,21.7456359 C86.8609272,21.7456359 85.0480132,23.4688279 85.0480132,26 C85.0480132,28.3890274 86.8410596,30.2543641 89.2524834,30.2543641 C91.1895695,30.2543641 92.317053,29.0648379 92.781457,28.3665835 L91.343543,27.3990025 C90.8667219,28.1097257 90.2036424,28.5760599 89.2624172,28.5760599 C88.3112583,28.5760599 87.6456954,28.1421446 87.2036424,27.286783 L92.8683775,24.9301746 C92.8683775,24.9326683 92.669702,24.4563591 92.669702,24.4563591 Z M86.8932119,25.8778055 C86.8485099,24.234414 88.1647351,23.3990025 89.1059603,23.3990025 C89.8485099,23.3990025 90.4668874,23.765586 90.6779801,24.2992519 L86.8932119,25.8778055 Z M82.2913907,30 L84.1514901,30 L84.1514901,17.5012469 L82.2913907,17.5012469 L82.2913907,30 Z M79.236755,22.7007481 L79.169702,22.7007481 C78.75,22.1995012 77.9528146,21.7456359 76.9346026,21.7456359 C74.8211921,21.7456359 72.8741722,23.6134663 72.8741722,26.0124688 C72.8741722,28.4014963 74.8112583,30.2468828 76.9346026,30.2468828 C77.9403974,30.2468828 78.75,29.7905237 79.169702,29.2793017 L79.236755,29.2793017 L79.236755,29.8902743 C79.236755,31.5137157 78.3725166,32.3890274 76.9793046,32.3890274 C75.839404,32.3890274 75.1316225,31.5660848 74.843543,30.8778055 L73.2268212,31.5561097 C73.6912252,32.6783042 74.9304636,34.0673317 76.9768212,34.0673317 C79.1572848,34.0673317 81.0049669,32.7780549 81.0049669,29.6334165 L81.0049669,22 L79.2466887,22 L79.2466887,22.7007481 C79.2491722,22.7007481 79.236755,22.7007481 79.236755,22.7007481 Z M77.1009934,28.5785536 C75.817053,28.5785536 74.7442053,27.5012469 74.7442053,26.0124688 C74.7442053,24.5112219 75.817053,23.4239401 77.1009934,23.4239401 C78.3725166,23.4239401 79.3584437,24.5236908 79.3584437,26.0124688 C79.3708609,27.5012469 78.375,28.5785536 77.1009934,28.5785536 Z M101.379139,17.5012469 L96.9312914,17.5012469 L96.9312914,30 L98.7913907,30 L98.7913907,25.2668329 L101.381623,25.2668329 C103.440397,25.2668329 105.464404,23.7680798 105.464404,21.3890274 C105.464404,19.0099751 103.447848,17.5012469 101.379139,17.5012469 Z M101.433775,23.521197 L98.7889073,23.521197 L98.7889073,19.2319202 L101.433775,19.2319202 C102.826987,19.2319202 103.614238,20.3865337 103.614238,21.3765586 C103.614238,22.3566085 102.817053,23.521197 101.433775,23.521197 Z M112.919702,21.7331671 C111.568709,21.7331671 110.175497,22.3341646 109.599338,23.6433915 L111.248344,24.3316708 C111.603477,23.6433915 112.254139,23.4089776 112.942053,23.4089776 C113.905629,23.4089776 114.879139,23.9875312 114.90149,25.0199501 L114.90149,25.1521197 C114.568709,24.9625935 113.838576,24.6733167 112.964404,24.6733167 C111.183775,24.6733167 109.378311,25.6508728 109.378311,27.4837905 C109.378311,29.1620948 110.838576,30.2394015 112.465232,30.2394015 C113.714404,30.2394015 114.402318,29.6733167 114.831954,29.0174564 L114.899007,29.0174564 L114.899007,29.9850374 L116.692053,29.9850374 L116.692053,25.1970075 C116.692053,22.967581 115.043046,21.7331671 112.919702,21.7331671 Z M112.686258,28.5785536 C112.077815,28.5785536 111.225993,28.2793017 111.225993,27.5112219 C111.225993,26.5436409 112.288907,26.1770574 113.195364,26.1770574 C114.014901,26.1770574 114.402318,26.3541147 114.889073,26.5985037 C114.754967,27.7206983 113.811258,28.5685786 112.686258,28.5785536 Z M123.233444,22 L121.097682,27.4214464 L121.030629,27.4214464 L118.817881,22 L116.816225,22 L120.136589,29.5785536 L118.244205,33.7905237 L120.181291,33.7905237 L125.289735,22 C125.289735,22 123.233444,22 123.233444,22 Z M106.490066,30 L108.350166,30 L108.350166,17.5012469 L106.490066,17.5012469 L106.490066,30 Z"/>
		<path fill="url(#playstore-a)" d="M10.3907285,7.53366584 C10.102649,7.84538653 9.93625828,8.32169576 9.93625828,8.94513716 L9.93625828,31.0573566 C9.93625828,31.680798 10.102649,32.1571072 10.4006623,32.4563591 L10.477649,32.5236908 L22.8153974,20.1346633 L22.8153974,19.8578554 L10.4677152,7.46633416 C10.4677152,7.46633416 10.3907285,7.53366584 10.3907285,7.53366584 Z"/>
		<path fill="url(#playstore-b)" d="M26.9205298,24.276808 L22.8054636,20.1446384 L22.8054636,19.8553616 L26.9205298,15.723192 L27.0099338,15.7780549 L31.8774834,18.5561097 C33.2706954,19.3441397 33.2706954,20.6458853 31.8774834,21.4438903 L27.0099338,24.2219451 C27.0099338,24.2219451 26.9205298,24.276808 26.9205298,24.276808 Z"/>
		<path fill="url(#playstore-c)" d="M27.0099338,24.2219451 L22.8054636,20 L10.3907285,32.4663342 C10.8451987,32.9551122 11.6076159,33.0099751 12.4594371,32.5336658 L27.0099338,24.2219451"/>
		<path fill="url(#playstore-d)" d="M27.0099338,15.7780549 L12.4594371,7.47880299 C11.6076159,6.99002494 10.8427152,7.05735661 10.3907285,7.54613466 L22.8054636,20 L27.0099338,15.7780549 Z"/>
		<path fill="#000" fill-rule="nonzero" d="M26.9205298,24.1321696 L12.4693709,32.3765586 C11.6622517,32.8428928 10.942053,32.8104738 10.477649,32.3865337 L10.4006623,32.4638404 L10.477649,32.5311721 C10.942053,32.9526185 11.6622517,32.9875312 12.4693709,32.521197 L27.0198675,24.2219451 C27.0198675,24.2219451 26.9205298,24.1321696 26.9205298,24.1321696 Z" opacity=".2"/>
		<path fill="#000" fill-rule="nonzero" d="M31.8774834,21.2992519 L26.9081126,24.1321696 L26.9975166,24.2219451 L31.8650662,21.4438903 C32.5629139,21.0448878 32.9056291,20.521197 32.9056291,20 C32.8634106,20.478803 32.5082781,20.9326683 31.8774834,21.2992519 Z" opacity=".12"/>
		<path fill="#FFF" d="M12.4594371,7.6234414 L31.8774834,18.7007481 C32.5082781,19.0573566 32.8634106,19.5236908 32.9180464,20 C32.9180464,19.478803 32.5753311,18.9551122 31.8774834,18.5561097 L12.4594371,7.47880299 C11.0662252,6.67830424 9.93625828,7.34663342 9.93625828,8.94513716 L9.93625828,9.08977556 C9.93625828,7.48877805 11.0662252,6.83291771 12.4594371,7.6234414 Z" opacity=".25"/>
	</g>
</svg>
